<svg width="512" height="512" viewBox="0 0 512 512" fill="none" xmlns="http://www.w3.org/2000/svg" role="img" aria-labelledby="title desc">
  <title id="title">eric yeh 個人數位照片</title>
  <desc id="desc">以黃色系為主的數位頭像，呈現專業、簡潔且帶有品牌感的個人形象。</desc>
  <defs>
    <linearGradient id="bg" x1="96" y1="40" x2="420" y2="460" gradientUnits="userSpaceOnUse">
      <stop stop-color="#3A2904"/>
      <stop offset="1" stop-color="#171102"/>
    </linearGradient>
    <linearGradient id="glow" x1="110" y1="92" x2="390" y2="400" gradientUnits="userSpaceOnUse">
      <stop stop-color="#FFD84D" stop-opacity="0.95"/>
      <stop offset="1" stop-color="#FFB347" stop-opacity="0.25"/>
    </linearGradient>
    <linearGradient id="face" x1="180" y1="156" x2="328" y2="356" gradientUnits="userSpaceOnUse">
      <stop stop-color="#FFE9A1"/>
      <stop offset="1" stop-color="#E5B54B"/>
    </linearGradient>
    <linearGradient id="hair" x1="156" y1="110" x2="348" y2="220" gradientUnits="userSpaceOnUse">
      <stop stop-color="#2E1F05"/>
      <stop offset="1" stop-color="#1A1202"/>
    </linearGradient>
    <filter id="shadow" x="56" y="56" width="400" height="400" filterUnits="userSpaceOnUse" color-interpolation-filters="sRGB">
      <feDropShadow dx="0" dy="18" stdDeviation="22" flood-color="#000000" flood-opacity="0.35"/>
    </filter>
  </defs>
  <rect width="512" height="512" rx="64" fill="url(#bg)"/>
  <circle cx="150" cy="124" r="84" fill="#FFD84D" fill-opacity="0.16"/>
  <circle cx="392" cy="148" r="72" fill="#FFB347" fill-opacity="0.12"/>
  <circle cx="408" cy="392" r="92" fill="#FFD84D" fill-opacity="0.08"/>
  <g filter="url(#shadow)">
    <circle cx="256" cy="256" r="156" fill="url(#glow)" fill-opacity="0.18"/>
    <path d="M160 360C160 304.771 204.771 260 260 260H262C317.229 260 362 304.771 362 360V384H160V360Z" fill="url(#face)" opacity="0.96"/>
    <path d="M174 220C174 170.294 214.294 130 264 130H272C321.706 130 362 170.294 362 220V262H174V220Z" fill="url(#hair)"/>
    <path d="M194 238C194 202.654 222.654 174 258 174H276C311.346 174 340 202.654 340 238V258H194V238Z" fill="url(#hair)"/>
    <path d="M198 228C200 188 236 160 274 160C306 160 334 177 346 206C338 204 328 203 320 205C308 173 274 156 244 164C219 171 199 194 198 228Z" fill="#3A2904" opacity="0.35"/>
    <ellipse cx="222" cy="254" rx="13" ry="17" fill="#2A1703"/>
    <ellipse cx="302" cy="254" rx="13" ry="17" fill="#2A1703"/>
    <path d="M222 243C226 240 231 239 236 240" stroke="#F9E6A6" stroke-width="4" stroke-linecap="round"/>
    <path d="M292 240C297 239 302 240 306 243" stroke="#F9E6A6" stroke-width="4" stroke-linecap="round"/>
    <path d="M246 293C254 302 270 302 278 293" stroke="#814E07" stroke-width="5" stroke-linecap="round"/>
    <path d="M202 348C214 324 233 311 256 311C279 311 298 324 310 348" stroke="#E0AE3C" stroke-width="14" stroke-linecap="round"/>
    <path d="M214 336C221 317 237 306 256 306C275 306 291 317 298 336" stroke="#FFEFC0" stroke-opacity="0.55" stroke-width="6" stroke-linecap="round"/>
    <path d="M184 304C184 270 191 244 205 221C214 245 229 262 256 268C226 270 205 282 184 304Z" fill="#3A2904" opacity="0.18"/>
    <path d="M328 304C328 270 321 244 307 221C298 245 283 262 256 268C286 270 307 282 328 304Z" fill="#3A2904" opacity="0.18"/>
    <path d="M234 348H278" stroke="#C98D1C" stroke-width="8" stroke-linecap="round" opacity="0.65"/>
  </g>
  <rect x="88" y="88" width="336" height="336" rx="48" stroke="#FFD84D" stroke-opacity="0.18" stroke-width="2"/>
</svg>
