<svg width="512" height="512" viewBox="0 0 512 512" fill="none" xmlns="http://www.w3.org/2000/svg" role="img" aria-labelledby="title desc">
  <title id="title">eric yeh 正式個人照片</title>
  <desc id="desc">以黃色系為主的正式證件照風格頭像，簡潔、專業、適合履歷與個人網站。</desc>
  <defs>
    <linearGradient id="bg" x1="80" y1="44" x2="436" y2="468" gradientUnits="userSpaceOnUse">
      <stop stop-color="#2B1D05"/>
      <stop offset="1" stop-color="#171002"/>
    </linearGradient>
    <radialGradient id="halo" cx="0" cy="0" r="1" gradientUnits="userSpaceOnUse" gradientTransform="translate(256 184) rotate(90) scale(146 146)">
      <stop stop-color="#FFE38C" stop-opacity="0.28"/>
      <stop offset="1" stop-color="#FFD84D" stop-opacity="0"/>
    </radialGradient>
    <linearGradient id="skin" x1="182" y1="168" x2="330" y2="366" gradientUnits="userSpaceOnUse">
      <stop stop-color="#FFF1BE"/>
      <stop offset="0.55" stop-color="#F1C96A"/>
      <stop offset="1" stop-color="#C98D2A"/>
    </linearGradient>
    <linearGradient id="hair" x1="160" y1="110" x2="352" y2="218" gradientUnits="userSpaceOnUse">
      <stop stop-color="#2A1A04"/>
      <stop offset="1" stop-color="#120B01"/>
    </linearGradient>
    <linearGradient id="shirt" x1="170" y1="330" x2="342" y2="446" gradientUnits="userSpaceOnUse">
      <stop stop-color="#FFF4CF"/>
      <stop offset="1" stop-color="#E4C15E"/>
    </linearGradient>
    <filter id="shadow" x="56" y="56" width="400" height="400" filterUnits="userSpaceOnUse" color-interpolation-filters="sRGB">
      <feDropShadow dx="0" dy="14" stdDeviation="18" flood-color="#000000" flood-opacity="0.28"/>
    </filter>
  </defs>
  <rect width="512" height="512" rx="64" fill="url(#bg)"/>
  <rect x="76" y="76" width="360" height="360" rx="46" fill="url(#halo)"/>
  <circle cx="390" cy="118" r="66" fill="#FFD84D" fill-opacity="0.10"/>
  <circle cx="126" cy="146" r="56" fill="#FFB347" fill-opacity="0.08"/>
  <g filter="url(#shadow)">
    <rect x="128" y="104" width="256" height="304" rx="110" fill="#1E1403" fill-opacity="0.14"/>
    <ellipse cx="256" cy="258" rx="82" ry="98" fill="url(#skin)"/>
    <ellipse cx="228" cy="242" rx="14" ry="18" fill="#7C5212" opacity="0.12"/>
    <ellipse cx="284" cy="242" rx="14" ry="18" fill="#7C5212" opacity="0.12"/>
    <ellipse cx="256" cy="219" rx="56" ry="72" fill="#FFF7DF" fill-opacity="0.08"/>
    <path d="M184 356C184 316.235 216.235 284 256 284C295.765 284 328 316.235 328 356V380H184V356Z" fill="url(#shirt)"/>
    <path d="M210 344L256 311L302 344V380H210V344Z" fill="#FFF7DE" fill-opacity="0.88"/>
    <path d="M227 324C239 316 250 312 256 312C262 312 273 316 285 324" stroke="#B98A2A" stroke-width="4" stroke-linecap="round" opacity="0.45"/>
    <path d="M174 220C174 168.578 215.578 127 267 127H277C326.706 127 367 167.294 367 217V244H174V220Z" fill="url(#hair)"/>
    <path d="M194 223C194 195 201 174 216 157C224 181 239 198 257 204C279 211 304 206 327 194C337 180 343 165 344 149C357 168 364 191 364 217V246H194V223Z" fill="url(#hair)"/>
    <ellipse cx="224" cy="253" rx="10" ry="11" fill="#261303"/>
    <ellipse cx="298" cy="253" rx="10" ry="11" fill="#261303"/>
    <circle cx="227" cy="251" r="2.4" fill="#FFF3C9"/>
    <circle cx="301" cy="251" r="2.4" fill="#FFF3C9"/>
    <path d="M219 243C223 241 228 240 233 241" stroke="#FBE8B5" stroke-width="3" stroke-linecap="round"/>
    <path d="M289 241C294 240 298 241 302 243" stroke="#FBE8B5" stroke-width="3" stroke-linecap="round"/>
    <path d="M256 289C261 289 266 288 270 285" stroke="#80550E" stroke-width="3" stroke-linecap="round"/>
    <path d="M225 308C234 312 246 314 256 314C266 314 278 312 287 308" stroke="#9B6A17" stroke-width="4" stroke-linecap="round"/>
    <path d="M220 271C233 279 245 283 256 283C267 283 279 279 292 271" stroke="#C9932E" stroke-width="4" stroke-linecap="round" opacity="0.62"/>
    <path d="M256 220C253 231 251 243 251 257C251 266 252 273 255 279" stroke="#B9842A" stroke-width="2.5" stroke-linecap="round" opacity="0.42"/>
    <path d="M238 232C241 227 246 224 251 223" stroke="#F9E9B6" stroke-width="2.5" stroke-linecap="round" opacity="0.5"/>
    <path d="M188 306C190 284 198 264 212 245C221 265 236 277 256 281C236 285 218 292 188 306Z" fill="#3A2504" opacity="0.10"/>
    <path d="M324 306C322 284 314 264 300 245C291 265 276 277 256 281C276 285 294 292 324 306Z" fill="#3A2504" opacity="0.10"/>
    <path d="M178 350C187 327 205 311 226 304" stroke="#B57D1A" stroke-width="8" stroke-linecap="round" opacity="0.24"/>
    <path d="M334 350C325 327 307 311 286 304" stroke="#B57D1A" stroke-width="8" stroke-linecap="round" opacity="0.24"/>
  </g>
  <rect x="88" y="88" width="336" height="336" rx="48" stroke="#FFD84D" stroke-opacity="0.15" stroke-width="2"/>
</svg>
